# xmcd
#
# Track frame offsets: 
#        150
#        15188
#        49761
#        68530
#        93861
#        116854
#        136351
#        166061
#        189513
#        206350
#        229114
#
# Disc length: 3196 seconds
#
# Revision: 0
# Processed by: cddbd v1.5.2PL0 Copyright (c) Steve Scherf et al.
# Submitted via: ExactAudioCopyFreeDBPlugin 1.0
#
DISCID=830c7a0b
DTITLE=Jim Oblon - Sunset
DYEAR=2014
DGENRE=Blues
TTITLE0=Before I Grow Too Old
TTITLE1=Lucille
TTITLE2=Desert Sun
TTITLE3=With You On My Mind
TTITLE4=When I Was A Cowboy 1911
TTITLE5=Blueberry Hill
TTITLE6=Wrapped Up In Your Love Again
TTITLE7=Sunset
TTITLE8=Railroad Bum
TTITLE9=Copperhead
TTITLE10=When I Was A Cowboy 1911 (voice and guitar) (Bonus track)
EXTD=
EXTT0=
EXTT1=
EXTT2=
EXTT3=
EXTT4=
EXTT5=
EXTT6=
EXTT7=
EXTT8=
EXTT9=
EXTT10=
PLAYORDER=
